<svg id="Capa_1" enable-background="new 0 0 511.974 511.974" height="512" viewBox="0 0 511.974 511.974" width="512" xmlns="http://www.w3.org/2000/svg"><g><g><path d="m375.131 217.775-92.319 92.319c-7.317 7.317-18.486 8.01-24.947 1.549s-5.767-17.631 1.549-24.947l105.852-106.222c7.317-7.317 4.953 5.892 11.415 12.353 6.461 6.462 5.767 17.631-1.55 24.948z" fill="#f7e365"/><path d="m173.253 35.729c-.011.011-.022.022-.034.034l-101.913 101.261c-6.479 6.443-16.955 6.414-23.398-.065-6.431-6.468-16.576-7.911-10.131-14.356.011-.011 3.052-1.691 3.064-1.702l109.046-108.602c6.479-6.443 16.955-6.414 23.398.066 6.431 6.467 6.413 16.919-.032 23.364z" fill="#7894ab"/><path d="m221.27 91.021c-.011.011-.022.022-.034.034l-58.261 57.609c-6.479 6.443-16.955 6.414-23.398-.066-6.431-6.468-6.413-16.919.032-23.364.011-.011.022-.022.034-.034l58.261-57.609c6.479-6.443 16.955-6.414 23.398.066 6.432 6.468 6.413 16.919-.032 23.364z" fill="#f7e365"/><path d="m499.527 359.592-103.999 103.999c-6.461 6.461-16.937 6.461-23.398 0s-6.461-16.937 0-23.398l103.999-103.999c6.461-6.461 16.937-6.461 23.398 0 6.461 6.462 6.461 16.937 0 23.398z" fill="#f7e365"/><path d="m443.506 318.123-53.071 53.071c-6.461 6.461-16.937 6.461-23.398 0s-6.461-16.937 0-23.398l53.071-53.071c6.461-6.461 16.937-6.461 23.398 0s6.461 16.937 0 23.398z" fill="#7894ab"/><path d="m334.628 147.794-106.935 107.181c-7.317 7.317-18.486 8.01-24.947 1.549s-5.767-17.631 1.549-24.947l92.319-92.319c7.317-7.317 18.486-8.01 24.947-1.549s20.383 2.768 13.067 10.085z" fill="#7894ab"/><path d="m499.528 359.596-104 104c-6.46 6.46-16.94 6.46-23.4 0-5.53-5.54-6.33-14.02-2.37-20.4 6.49 5.85 16.52 5.65 22.77-.6l104-104c.92-.92 1.72-1.93 2.37-3 .22.2.42.39.63.6 6.46 6.459 6.46 16.939 0 23.4z" fill="#f4d242"/><path d="m443.508 318.126-53.07 53.07c-6.46 6.46-16.94 6.46-23.4 0-5.54-5.54-6.33-14.02-2.37-20.4 6.49 5.85 16.52 5.65 22.77-.6l53.07-53.07c.93-.93 1.72-1.93 2.37-3 .22.2.42.39.63.6 6.46 6.46 6.46 16.939 0 23.4z" fill="#5d748a"/><path d="m173.248 35.726c-.01.01-.02.03-.03.04l-101.91 101.26c-6.48 6.44-16.96 6.41-23.4-.07-6.43-6.47-16.58-7.91-10.13-14.35.01-.01 3.05-1.69 3.06-1.71.02.01.05.04.07.06 6.44 6.48 16.92 6.51 23.4.07l101.91-101.26c.01-.01.02-.03.03-.04 2.62-2.62 4.19-5.91 4.68-9.32.83.56 1.62 1.22 2.36 1.96 6.43 6.47 6.41 16.92-.04 23.36z" fill="#5d748a"/><path d="m221.268 91.026c-.01.01-.02.02-.03.03l-58.26 57.61c-6.48 6.44-16.96 6.41-23.4-.07-3.81-3.83-5.36-9.07-4.64-14.04 6.43 4.44 15.3 3.81 21.04-1.89l58.26-57.61c.01-.01.02-.02.03-.03 2.62-2.62 4.19-5.92 4.68-9.33.83.57 1.62 1.22 2.35 1.96 6.44 6.47 6.42 16.92-.03 23.37z" fill="#f4d242"/><path d="m376.678 192.826c-6.46-6.46-4.1-19.67-11.41-12.35l-5.95 5.97-16.76 16.82c2.52 4.559 4.673 9.401 6.449 14.493.5 1.434.108 3.03-.965 4.104l-82.233 82.234c-2.81 2.82-6.2 4.66-9.67 5.47.51.74 1.08 1.43 1.73 2.08 6.46 6.46 17.63 5.77 24.94-1.55l92.32-92.32c7.319-7.321 8.009-18.491 1.549-24.951z" fill="#f4d242"/><path d="m321.465 137.611c-3.706-3.683-9.278-5-14.337-3.995.003.002.006.003.009.005-8.899.539-24.117 20.318-30.489 25.605 4.998 1.351 19.32 1.335 14.176 9.435-5.257 3.551-83.854 88.435-89.806 85.785 5.934 8.585 18.66 8.575 26.67.53 0 0 106.94-107.18 106.94-107.18 7.356-7.356-6.746-3.594-13.163-10.185z" fill="#5d748a"/><path d="m405.407 499.636c-6.551 6.551-17.269 6.453-23.941-.219-47.508-47.508-28.919-141.874-13.609-193.895 3.77-12.808 6.08-25.446 6.869-37.565l.091-1.385c2.525-38.808-8.923-73.021-32.233-96.333-23.308-23.311-57.517-34.761-96.325-32.24-12.983.844-26.252 3.211-39.436 7.033-52.043 15.086-146.473 33.269-194.191-14.449-6.671-6.671-6.769-17.39-.219-23.941 6.551-6.551 17.269-6.453 23.941.219 37.523 37.523 132.331 13.802 160.495 5.638 15.511-4.498 31.191-7.286 46.601-8.287 48.78-3.168 92.411 11.857 122.858 42.307 30.448 30.451 45.469 74.087 42.295 122.868l-.09 1.386c-.949 14.588-3.694 29.678-8.16 44.853-8.28 28.135-32.403 122.831 4.836 160.07 6.671 6.671 6.769 17.389.218 23.94z" fill="#df646e"/></g><g><path d="m504.831 330.892c-9.376-9.376-24.633-9.374-34.007 0l-32.969 32.969c-2.929 2.93-2.929 7.678 0 10.607 2.93 2.928 7.678 2.928 10.607 0l32.969-32.969c3.526-3.526 9.265-3.527 12.793-.001 3.527 3.527 3.527 9.268 0 12.794l-95.835 95.834c-2.22-6.31-3.751-13.341-4.682-20.902l29.997-29.997c2.929-2.93 2.929-7.678 0-10.607-2.93-2.928-7.678-2.928-10.607 0l-20.521 20.522c.012-10.105.792-20.747 2.174-31.577l54.062-54.135c9.375-9.376 9.375-24.631 0-34.007-4.541-4.54-10.58-7.041-17.004-7.041-6.931-.038-13.369 2.984-18.028 8.067 1.674-10.208 2.513-20.147 2.711-30.345.071-4.141-3.229-7.557-7.37-7.628-.044-.001-.087-.001-.132-.001-4.081 0-7.426 3.273-7.496 7.371-.334 18.112-2.949 35.339-8.335 53.663-4.534 15.406-12.503 46.049-14.936 78.172-1.97 40.262.609 65.799 21.663 89.319 3.737 3.736 3.835 9.718.219 13.333-3.614 3.616-9.598 3.52-13.334-.219-44.771-44.77-26.559-136.048-11.717-186.474 4.075-13.859 6.476-27.329 7.248-40.581 2.021-31.073-4.518-59.425-18.624-82.158-8.536-13.794-19.925-25.487-33.552-34.354-25.015-16.144-53.883-21.868-84.352-20.033-13.521.879-27.329 3.34-41.038 7.314-24.924 7.226-62.274 15.875-98.673 16.048-4.142.02-7.483 3.394-7.464 7.536.02 4.13 3.374 7.464 7.499 7.464h.037c38.128-.182 76.936-9.149 102.776-16.642 12.668-3.672 25.396-5.943 37.835-6.752 10.967-.711 21.584-.232 31.669 1.369l-79.42 79.42c-10.229 10.23-10.925 26.182-1.55 35.558 9.529 9.798 26.264 8.149 35.548-1.552l45.126-45.145c2.928-2.929 2.927-7.678-.003-10.606-2.929-2.929-7.678-2.929-10.606.003l-45.129 45.147c-3.698 3.87-10.442 5.381-14.328 1.546-3.527-3.527-2.832-9.961 1.55-14.343l86.026-86.026c6.348 1.979 12.398 4.464 18.088 7.449l-20.904 20.913c-2.928 2.929-2.927 7.678.003 10.606 2.929 2.928 7.678 2.927 10.606-.003l23.331-23.341c3.743 2.78 7.267 5.803 10.528 9.064 3.82 3.821 7.291 7.968 10.417 12.396l-93.583 93.454c-4.834 4.834-7.719 11.098-8.125 17.637-.427 6.89 1.908 13.254 6.575 17.92 4.304 4.305 10.05 6.625 16.32 6.625.529 0 1.063-.017 1.599-.05 6.54-.405 12.802-3.292 17.628-8.124l78.275-78.276c1.265 9.238 1.598 18.929.946 28.958-.701 12.16-2.905 24.52-6.67 37.324-15.779 53.615-34.75 151.065 15.5 201.315 4.833 4.833 11.168 7.253 17.476 7.253 6.203 0 12.381-2.342 17.073-7.034 9.464-9.465 9.366-24.963-.219-34.548-1.844-1.844-3.522-3.887-5.053-6.1l99.393-99.393c9.374-9.374 9.374-24.63-.001-34.006zm-227.33-26.096c-2.24 2.243-5.063 3.577-7.946 3.756-2.54.161-4.801-.627-6.384-2.21-1.582-1.582-2.367-3.85-2.21-6.385.179-2.886 1.515-5.712 3.757-7.955l90.894-90.77c2.867 5.784 5.231 11.924 7.089 18.362zm147.911-4.767c3.364-3.507 9.428-3.507 12.792.001 3.527 3.526 3.527 9.266-.003 12.796l-39.203 39.257c2.363-11.615 5.258-23.132 8.488-34.129z"/><path d="m72.079 151.186c-22.799-4.061-41.015-12.777-54.145-25.907-3.656-3.496-3.874-9.81-.218-13.333 3.615-3.618 9.597-3.519 13.333.219 17.646 17.645 47.779 25.088 89.592 22.129 32.192-2.28 62.873-10.121 78.296-14.592 14.988-4.347 30.128-7.04 44.998-8.006 46.604-3.023 88.171 11.226 117.068 40.126 19.549 19.551 32.649 45.339 37.887 74.575.65 3.631 3.811 6.18 7.374 6.179.438 0 .884-.038 1.331-.118 4.077-.73 6.791-4.628 6.061-8.705-5.78-32.269-20.319-60.809-42.045-82.536-31.994-31.997-77.67-47.799-128.648-44.489-6.268.407-12.577 1.11-18.899 2.082 11.244-9.07 13.019-26.066 2.554-36.439-8.91-9.355-25.026-9.397-33.984-.106l-55.958 55.338c-12.89 1.659-25.548 2.484-37.391 2.198l79.219-78.713c9.371-9.315 9.461-24.608.1-34.012-9.353-9.395-24.605-9.438-34.002-.099l-98.831 98.2c-1.458-1.132-2.832-2.337-4.113-3.619-4.625-4.624-10.751-7.204-17.25-7.264-.077-.001-.153-.001-.23-.001-6.464 0-12.518 2.497-17.067 7.046-9.479 9.106-9.254 25.468.219 34.547 15.342 15.343 36.241 25.459 62.12 30.068 4.081.727 7.973-1.99 8.699-6.068s-1.991-7.974-6.07-8.7zm131.12-78.275c3.379-3.502 9.423-3.489 12.784.035 3.509 3.525 3.501 9.257-.019 12.775-.004.005-.008.009-.013.013l-19.234 19.021c-11.169 3.207-22.609 6.171-34.361 8.546zm-48.024-55.296c3.535-3.515 9.276-3.496 12.794.037 3.506 3.527 3.497 9.255-.02 12.766v.001c-.068.067-.136.138-.201.209l-88.07 87.507c-7.378-1.145-14.21-2.891-20.301-5.333z"/></g></g></svg>