<?xml version="1.0"?>
<svg xmlns="http://www.w3.org/2000/svg" xmlns:xlink="http://www.w3.org/1999/xlink" xmlns:svgjs="http://svgjs.com/svgjs" version="1.1" width="512" height="512" x="0" y="0" viewBox="0 0 487 487" style="enable-background:new 0 0 512 512" xml:space="preserve" class=""><g><path xmlns="http://www.w3.org/2000/svg" d="m339.949219 243.5c0 70.4375-57.101563 127.539062-127.539063 127.539062s-127.539062-57.101562-127.539062-127.539062 57.101562-127.539062 127.539062-127.539062 127.539063 57.101562 127.539063 127.539062zm0 0" fill="#1c8d76" data-original="#00efd1" style=""/><path xmlns="http://www.w3.org/2000/svg" d="m188.320312 68.75-57.210937 28.980469c-12.601563 6.800781-28.324219 2.5-35.710937-9.769531l115.722656-79.460938c15.601562-7.71875 33.269531-10.210938 50.398437-7.109375l81.890625 20.570313c7.535156 1.890624 15.507813.796874 22.25-3.0625l16.738282-9.558594v82.941406h-.667969c-23.8125 17.917969-55.640625 21.027344-82.46875 8.058594l-4.933594-2.390625c-7.710937-3.730469-16.167969-5.667969-24.738281-5.667969h-47.808594c-15 0-28.390625-9.414062-33.460938-23.53125zm0 0" fill="#f7caa5" data-original="#f7caa5" style="" class=""/><path xmlns="http://www.w3.org/2000/svg" d="m236.5 418.25 57.210938-28.980469c12.601562-6.800781 28.324218-2.5 35.710937 9.769531l-115.722656 79.460938c-15.601563 7.71875-33.273438 10.210938-50.398438 7.109375l-81.890625-20.570313c-7.535156-1.890624-15.507812-.796874-22.25 3.0625l-16.738281 9.558594v-82.941406h.667969c23.8125-17.917969 55.640625-21.027344 82.46875-8.058594l4.929687 2.390625c7.714844 3.730469 16.171875 5.667969 24.742188 5.667969h47.808593c15 0 28.390626 9.414062 33.460938 23.53125zm0 0" fill="#f7caa5" data-original="#f7caa5" style="" class=""/><path xmlns="http://www.w3.org/2000/svg" d="m238.578125 438.261719h-78.578125c-4.417969 0-8-3.582031-8-8 0-4.421875 3.582031-8 8-8h69.398438c-.132813-.4375-.277344-.871094-.429688-1.300781-3.941406-10.933594-14.3125-18.226563-25.933594-18.242188h-47.804687c-9.773438-.011719-19.421875-2.222656-28.222657-6.46875l-4.9375-2.390625c-24.117187-11.726563-52.777343-8.925781-74.167968 7.25-2.285156 1.742187-5.324219 2.128906-7.96875 1.011719-2.644532-1.117188-4.488282-3.566406-4.832032-6.417969-.339843-2.847656.871094-5.664063 3.175782-7.375 26.179687-19.796875 61.25-23.222656 90.765625-8.871094l4.9375 2.394531c6.628906 3.195313 13.890625 4.859376 21.25 4.867188h47.808593c11.550782-.007812 22.632813 4.578125 30.796876 12.742188 8.167968 8.167968 12.753906 19.25 12.742187 30.800781 0 4.417969-3.578125 8-8 8zm0 0" fill="#edb288" data-original="#edb288" style=""/><path xmlns="http://www.w3.org/2000/svg" d="m333.953125 116.324219c-13.222656-.007813-26.277344-3.011719-38.175781-8.78125l-4.9375-2.394531c-6.628906-3.195313-13.890625-4.859376-21.25-4.867188h-47.808594c-11.550781.007812-22.632812-4.578125-30.796875-12.742188-8.167969-8.167968-12.753906-19.25-12.746094-30.800781 0-4.417969 3.582031-8 8-8h78.582031c4.417969 0 8 3.582031 8 8 0 4.421875-3.582031 8-8 8h-69.398437c.132813.4375.273437.871094.429687 1.300781 3.941407 10.933594 14.308594 18.222657 25.929688 18.242188h47.808594c9.773437.011719 19.421875 2.222656 28.222656 6.46875l4.9375 2.390625c24.117188 11.730469 52.777344 8.925781 74.167969-7.25 2.28125-1.742187 5.324219-2.128906 7.96875-1.011719 2.644531 1.117188 4.488281 3.566406 4.832031 6.417969.339844 2.847656-.871094 5.664063-3.179688 7.375-15.140624 11.445313-33.601562 17.640625-52.585937 17.652344zm0 0" fill="#edb288" data-original="#edb288" style=""/><g xmlns="http://www.w3.org/2000/svg" fill="#00acea"><path d="m256.960938 205.5h-18.089844c-1.492188-8.148438-5.148438-15.746094-10.585938-22h28.675782c4.417968 0 8-3.582031 8-8s-3.582032-8-8-8h-89.101563c-4.417969 0-8 3.582031-8 8s3.582031 8 8 8h25.5c13.894531 0 25.621094 10 29.136719 22h-54.636719c-4.417969 0-8 3.582031-8 8s3.582031 8 8 8h54.652344c-1.375 5.175781-4.054688 9.910156-7.777344 13.757812-5.617187 5.796876-13.304687 9.121094-21.375 9.242188h-25.5c-3.246094-.085938-6.207031 1.851562-7.429687 4.863281-1.222657 3.011719-.453126 6.464844 1.9375 8.667969l63.71875 60.160156c3.222656 3.015625 8.28125 2.859375 11.308593-.355468 1.457031-1.507813 2.242188-3.535157 2.183594-5.628907-.0625-2.09375-.964844-4.074219-2.503906-5.496093l-49.101563-46.210938h5.386719c12.316406-.109375 24.078125-5.121094 32.6875-13.929688 6.871094-6.75 11.375-15.546874 12.835937-25.070312h18.078126c4.417968 0 8-3.582031 8-8s-3.582032-8-8-8zm0 0" fill="#b4dddf" data-original="#00acea" style="" class=""/><path d="m382.398438 9.339844v-9.339844h62.421874v115.039062h-62.421874zm0 0" fill="#b4dddf" data-original="#00acea" style="" class=""/><path d="m42.421875 477.660156v9.339844h-42.421875v-115.039062h42.421875zm0 0" fill="#b4dddf" data-original="#00acea" style="" class=""/></g><path xmlns="http://www.w3.org/2000/svg" d="m428.738281 77.828125c0 8.285156-6.714843 15-15 15-8.28125 0-15-6.714844-15-15 0-8.28125 6.71875-15 15-15 8.285157 0 15 6.71875 15 15zm0 0" fill="#1c8d76" data-original="#00efd1" style=""/></g></svg>
