<svg enable-background="new 0 0 64 64" height="512" viewBox="0 0 64 64" width="512" xmlns="http://www.w3.org/2000/svg"><g id="Grids" display="none"><g id="Grid_59_" display="inline"><g><path d="m51.9 4.1v55.8h-39.8v-55.8zm.1-.1h-40v56h40z" fill="#f00"/></g><g><path d="m59.9 12.1v39.8h-55.8v-39.8zm.1-.1h-56v40h56z" fill="#4600f0"/></g><g><path d="m55.9 8.1v47.8h-47.8v-47.8zm.1-.1h-48v48h48z" fill="#f0c800"/></g><g><path d="m32 6.1c14.281 0 25.9 11.619 25.9 25.9s-11.619 25.9-25.9 25.9-25.9-11.619-25.9-25.9 11.619-25.9 25.9-25.9m0-.1c-14.359 0-26 11.641-26 26s11.641 26 26 26 26-11.641 26-26-11.641-26-26-26z" fill="#00f096"/></g></g></g><g id="Icons"><g><path d="m48 6v50c0 1.12-.93 2-2 2h-36c-1.1 0-2-.9-2-2v-50c0-1.1.9-2 2-2h36c1.1 0 2 .9 2 2z" fill="#00a0c8"/></g><g><path d="m44 41.201v-27.201c0-.55-.45-1-1-1h-30c-.55 0-1 .45-1 1v38c0 .55.45 1 1 1h23.2c.391 1.928 1.334 3.652 2.66 5h7.14c1.07 0 2-.88 2-2v-14.8c-1.271-.258-2.639-.276-4 .001z" fill="#0082aa"/></g><g><path d="m44 13v38c0 .55-.45 1-1 1h-30c-.55 0-1-.45-1-1v-38c0-.55.45-1 1-1h30c.55 0 1 .45 1 1z" fill="#f0f0f0"/></g><g><circle cx="46" cy="50" fill="#c80a50" r="10"/></g><g><path d="m52 48h-3v-3c0-.552-.448-1-1-1h-4c-.552 0-1 .448-1 1v3h-3c-.552 0-1 .448-1 1v4c0 .552.448 1 1 1h3v3c0 .552.448 1 1 1h4c.552 0 1-.448 1-1v-3h3c.552 0 1-.448 1-1v-4c0-.552-.448-1-1-1z" fill="#a00028"/></g><g><path d="m38.16 34.4-1.32-.76c.1-.53.16-1.08.16-1.64s-.06-1.11-.16-1.64l1.32-.76c.48-.28.64-.89.37-1.37l-2-3.46c-.28-.48-.89-.64-1.37-.37l-1.32.76c-.83-.71-1.79-1.26-2.84-1.64v-1.52c0-.55-.45-1-1-1h-4c-.55 0-1 .45-1 1v1.52c-1.05.38-2.01.93-2.84 1.64l-1.32-.76c-.48-.27-1.09-.11-1.37.37l-2 3.46c-.27.48-.11 1.09.37 1.37l1.32.76c-.1.53-.16 1.08-.16 1.64s.06 1.11.16 1.64l-1.32.76c-.48.28-.64.89-.37 1.37l2 3.46c.28.48.89.64 1.37.37l1.32-.76c.83.71 1.79 1.26 2.84 1.64v1.52c0 .55.45 1 1 1h4c.55 0 1-.45 1-1v-1.52c1.05-.38 2.01-.93 2.84-1.64l1.32.76c.48.27 1.09.11 1.37-.37l2-3.46c.27-.48.11-1.09-.37-1.37zm-10.16 4.6c-3.87 0-7-3.13-7-7s3.13-7 7-7 7 3.13 7 7-3.13 7-7 7z" fill="#d2d2d2"/></g><g><path d="m31.707 29.293c-.391-.391-1.024-.391-1.414 0l-3.293 3.293-1.293-1.293c-.391-.391-1.024-.391-1.414 0-.391.39-.391 1.024 0 1.414l2 2c.391.39 1.024.39 1.414 0l4-4c.391-.39.391-1.024 0-1.414z" fill="#d2d2d2"/></g><g><path d="m38.16 33.4-1.32-.76c.1-.53.16-1.08.16-1.64s-.06-1.11-.16-1.64l1.32-.76c.48-.28.64-.89.37-1.37l-2-3.46c-.28-.48-.89-.64-1.37-.37l-1.32.76c-.83-.71-1.79-1.26-2.84-1.64v-1.52c0-.55-.45-1-1-1h-4c-.55 0-1 .45-1 1v1.52c-1.05.38-2.01.93-2.84 1.64l-1.32-.76c-.48-.27-1.09-.11-1.37.37l-2 3.46c-.27.48-.11 1.09.37 1.37l1.32.76c-.1.53-.16 1.08-.16 1.64s.06 1.11.16 1.64l-1.32.76c-.48.28-.64.89-.37 1.37l2 3.46c.28.48.89.64 1.37.37l1.32-.76c.83.71 1.79 1.26 2.84 1.64v1.52c0 .55.45 1 1 1h4c.55 0 1-.45 1-1v-1.52c1.05-.38 2.01-.93 2.84-1.64l1.32.76c.48.27 1.09.11 1.37-.37l2-3.46c.27-.48.11-1.09-.37-1.37zm-10.16 4.6c-3.87 0-7-3.13-7-7s3.13-7 7-7 7 3.13 7 7-3.13 7-7 7z" fill="#0a5078"/></g><g><g><path d="m33 12v1c0 .55-.45 1-1 1h-8c-.55 0-1-.45-1-1v-1h-2v1c0 1.65 1.35 3 3 3h8c1.65 0 3-1.35 3-3v-1z" fill="#d2d2d2"/></g></g><g><path d="m35 11h-14c-.552 0-1-.448-1-1v-2c0-.552.448-1 1-1h14c.552 0 1 .448 1 1v2c0 .552-.448 1-1 1z" fill="#0082aa"/></g><g><g><path d="m34.5 8v4c0 1.38-1.12 2.5-2.5 2.5h-8c-1.38 0-2.5-1.12-2.5-2.5v-4h1v4c0 .83.67 1.5 1.5 1.5h8c.83 0 1.5-.67 1.5-1.5v-4z" fill="#fab414"/></g></g><g><g><path d="m33 9v3c0 .55-.45 1-1 1h-8c-.55 0-1-.45-1-1v-3h-2v3c0 1.65 1.35 3 3 3h8c1.65 0 3-1.35 3-3v-3z" fill="#fab414"/></g></g><g><path d="m21 9h2v2h-2z" fill="#dc9600"/></g><g><path d="m33 9h2v2h-2z" fill="#dc9600"/></g><g><path d="m35 10h-14c-.552 0-1-.448-1-1v-2c0-.552.448-1 1-1h14c.552 0 1 .448 1 1v2c0 .552-.448 1-1 1z" fill="#00325a"/></g><g><g><g><path d="m26.293 33.707-2-2c-.39-.39-.39-1.024 0-1.414.39-.39 1.024-.39 1.414 0l2.707 2.707-.707.707c-.39.391-1.024.391-1.414 0z" fill="#00a0c8"/></g></g></g><g><g><path d="m26.293 33.707-.707-.707 4.707-4.707c.39-.39 1.024-.39 1.414 0 .39.39.39 1.024 0 1.414l-4 4c-.39.391-1.024.391-1.414 0z" fill="#c80a50"/></g></g><g><path d="m52 47h-3v-3c0-.552-.448-1-1-1h-4c-.552 0-1 .448-1 1v3h-3c-.552 0-1 .448-1 1v4c0 .552.448 1 1 1h3v3c0 .552.448 1 1 1h4c.552 0 1-.448 1-1v-3h3c.552 0 1-.448 1-1v-4c0-.552-.448-1-1-1z" fill="#f0f0f0"/></g></g></svg>