<svg id="Capa_1" enable-background="new 0 0 512 512" height="512" viewBox="0 0 512 512" width="512" xmlns="http://www.w3.org/2000/svg"><g><g><g><path d="m255.999 504.499c-12.04 0-21.8-9.76-21.8-21.8 0-74.522 60.628-135.15 135.15-135.15 50.481 0 91.549-41.069 91.549-91.549s-41.069-91.549-91.549-91.549c-74.522 0-135.15-60.628-135.15-135.15 0-12.04 9.76-21.8 21.8-21.8s21.8 9.76 21.8 21.8c0 50.48 41.069 91.549 91.549 91.549 74.522 0 135.15 60.628 135.15 135.15s-60.628 135.15-135.15 135.15c-50.481 0-91.549 41.069-91.549 91.549.001 12.04-9.76 21.8-21.8 21.8z" fill="#e28086"/><path d="m256.812 482.699c0-74.522 60.628-135.15 135.15-135.15 50.481 0 91.549-41.069 91.549-91.549s-41.069-91.549-91.549-91.549c-74.522 0-135.15-60.628-135.15-135.15 0-7.9 4.202-14.819 10.494-18.643-3.297-2.004-7.167-3.157-11.306-3.157-12.04 0-21.8 9.76-21.8 21.8 0 74.522 60.628 135.15 135.15 135.15 50.481 0 91.549 41.069 91.549 91.549s-41.069 91.549-91.549 91.549c-74.522 0-135.15 60.628-135.15 135.15 0 12.04 9.76 21.8 21.8 21.8 4.14 0 8.01-1.154 11.306-3.157-6.292-3.824-10.494-10.743-10.494-18.643z" fill="#dd636e"/><path d="m504.5 482.699c0 12.04-9.76 21.8-21.8 21.8s-21.8-9.76-21.8-21.8c0-50.48-41.07-91.55-91.55-91.55-27.1 0-52.36-8.02-73.53-21.8-37.06-24.13-61.62-65.93-61.62-113.35s24.56-89.22 61.62-113.35c21.17 13.78 46.43 21.8 73.53 21.8-50.48 0-91.55 41.07-91.55 91.55s41.07 91.55 91.55 91.55c27.1 0 52.36 8.02 73.53 21.8 37.06 24.13 61.62 65.93 61.62 113.35z" fill="#b1e4fa"/><path d="m442.88 142.65c-21.17-13.78-46.43-21.8-73.53-21.8 50.48 0 91.55-41.07 91.55-91.55 0-12.04 9.76-21.8 21.8-21.8s21.8 9.76 21.8 21.8c0 47.42-24.56 89.22-61.62 113.35z" fill="#b1e4fa"/><g fill="#9dc6fb"><path d="m493.34 501.729c-3.15 1.76-6.78 2.77-10.64 2.77-12.04 0-21.8-9.76-21.8-21.8 0-50.48-41.07-91.55-91.55-91.55-27.1 0-52.36-8.02-73.53-21.8-37.06-24.13-61.62-65.93-61.62-113.35s24.56-89.22 61.62-113.35c3.78 2.46 7.7 4.74 11.73 6.82-31.67 24.76-52.07 63.31-52.07 106.53s20.4 81.77 52.07 106.53c20.31 15.87 45.26 26.08 72.44 28.21 3.51.27 7.06.41 10.64.41 50.48 0 91.55 41.07 91.55 91.55 0 8.17 4.5 15.29 11.16 19.03z"/><path d="m379.99 121.26c-3.51-.27-7.06-.41-10.64-.41 50.48 0 91.55-41.07 91.55-91.55 0-12.04 9.76-21.8 21.8-21.8 3.86 0 7.49 1.01 10.64 2.77-6.66 3.74-11.16 10.86-11.16 19.03 0 50.48-41.07 91.55-91.55 91.55-3.58 0-7.13.14-10.64.41z"/></g></g><path d="m180.698 211.763h-147.094c-14.417 0-26.104-11.687-26.104-26.104v-82.137c0-14.417 11.687-26.104 26.104-26.104h147.094c14.417 0 26.104 11.687 26.104 26.104v82.137c.001 14.417-11.686 26.104-26.104 26.104z" fill="#b1e4fa"/><path d="m57.71 211.761h-24.11c-14.41 0-26.1-11.68-26.1-26.1v-82.14c0-14.42 11.69-26.1 26.1-26.1h24.11c-14.42 0-26.1 11.68-26.1 26.1v82.14c0 14.42 11.68 26.1 26.1 26.1z" fill="#9dc6fb"/><path d="m180.698 423.945h-147.094c-14.417 0-26.104-11.687-26.104-26.104v-82.137c0-14.417 11.687-26.104 26.104-26.104h147.094c14.417 0 26.104 11.687 26.104 26.104v82.137c.001 14.417-11.686 26.104-26.104 26.104z" fill="#e28086"/><path d="m57.71 423.943h-24.11c-14.41 0-26.1-11.68-26.1-26.1v-82.14c0-14.42 11.69-26.1 26.1-26.1h24.11c-14.42 0-26.1 11.68-26.1 26.1v82.14c0 14.42 11.68 26.1 26.1 26.1z" fill="#dd636e"/></g><g><path d="m480.207 333.587c1.233.768 2.603 1.134 3.956 1.134 2.505 0 4.953-1.254 6.375-3.538 14.04-22.555 21.462-48.553 21.462-75.183 0-.013-.002-.026-.002-.039-.012-46.143-22.052-87.227-56.148-113.31 35.342-26.975 56.15-68.584 56.15-113.351 0-16.156-13.144-29.3-29.3-29.3-13.564 0-25.002 9.267-28.323 21.8h-170.054c-3.322-12.534-14.759-21.8-28.323-21.8-16.156 0-29.3 13.144-29.3 29.3 0 46.159 22.044 87.26 56.15 113.35-32.036 24.452-52.12 60.929-55.596 100.884l-43.73-24.402c17.209-1.44 30.776-15.897 30.776-33.472v-82.14c0-18.527-15.073-33.6-33.6-33.6h-147.1c-18.527 0-33.6 15.073-33.6 33.6v82.14c0 18.527 15.073 33.6 33.6 33.6h21.86c4.142 0 7.5-3.358 7.5-7.5s-3.358-7.5-7.5-7.5h-21.86c-10.256 0-18.6-8.344-18.6-18.6v-82.14c0-10.256 8.344-18.6 18.6-18.6h147.1c10.256 0 18.6 8.344 18.6 18.6v82.14c0 10.256-8.344 18.6-18.6 18.6h-95.24c-4.142 0-7.5 3.358-7.5 7.5s3.358 7.5 7.5 7.5h67.51l73.807 41.186c1.365 44.346 23.067 83.655 56.074 108.903-28.389 21.668-47.395 52.777-53.773 87.385l-45.549-25.417c17.209-1.443 30.774-15.901 30.774-33.477v-82.137c0-18.53-15.075-33.604-33.604-33.604h-147.095c-18.529 0-33.604 15.074-33.604 33.604v82.137c0 18.53 15.075 33.604 33.604 33.604h119.371l74.078 41.338c-.227 3.286-.353 6.592-.353 9.917 0 16.156 13.144 29.3 29.3 29.3 13.564 0 25.001-9.266 28.323-21.8h170.053c3.322 12.534 14.759 21.8 28.323 21.8 16.156 0 29.3-13.144 29.3-29.3 0-46.159-22.044-87.26-56.151-113.35 5.351-4.094 10.415-8.554 15.12-13.342 2.903-2.955 2.862-7.703-.092-10.606s-7.703-2.862-10.606.092c-5.376 5.471-11.276 10.464-17.57 14.905-10.012-6.027-20.821-10.856-32.228-14.297 34.148-15.647 57.928-50.148 57.928-90.101 0-.017-.003-.034-.003-.052-.028-54.592-44.449-98.996-99.047-98.998-.007 0-.013 0-.02 0-70.378-.01-127.631-57.269-127.631-127.649 0-7.885 6.415-14.3 14.3-14.3s14.3 6.415 14.3 14.3c0 54.616 44.433 99.049 99.049 99.049h.002.009c70.381.006 127.639 57.267 127.639 127.65 0 .007.001.014.001.022-.004 23.817-6.642 47.067-19.197 67.235-2.188 3.516-1.112 8.141 2.405 10.33zm-465.207 64.253v-82.137c0-10.259 8.346-18.604 18.604-18.604h147.094c10.258 0 18.604 8.346 18.604 18.604v82.137c0 10.259-8.346 18.604-18.604 18.604h-147.094c-10.258.001-18.604-8.345-18.604-18.604zm255.301 84.859c0 7.885-6.415 14.3-14.3 14.3s-14.3-6.415-14.3-14.3c0-41.73 20.211-80.405 54.295-104.401 10.014 6.029 20.825 10.859 32.233 14.3-34.148 15.647-57.928 50.148-57.928 90.101zm24.902-39.53h148.294c5.194 9.703 8.529 20.537 9.55 32.03h-167.394c1.022-11.492 4.357-22.327 9.55-32.03zm10.265-15c15.428-18.047 38.334-29.52 63.882-29.52s48.454 11.473 63.882 29.52zm63.883-88.119c-25.548 0-48.454-11.473-63.882-29.52h127.764c-15.428 18.047-38.334 29.52-63.882 29.52zm-74.148-123.58h148.292c5.194 9.703 8.529 20.537 9.551 32.03h-167.393c1.022-11.493 4.357-22.327 9.55-32.03zm157.845 47.03c-1.022 11.493-4.357 22.327-9.55 32.03h-148.295c-5.194-9.703-8.529-20.537-9.55-32.03zm-19.818-62.03h-127.762c15.425-18.044 38.326-29.516 63.869-29.52h.012c25.548.001 48.453 11.473 63.881 29.52zm-162.929 54.53c0 54.616 44.434 99.05 99.05 99.05 70.386 0 127.649 57.263 127.649 127.649 0 7.885-6.415 14.3-14.3 14.3s-14.3-6.415-14.3-14.3c0-54.616-44.433-99.05-99.049-99.05-70.386 0-127.65-57.263-127.65-127.649 0-41.729 20.211-80.405 54.293-104.4 10.014 6.029 20.825 10.859 32.233 14.3-34.147 15.647-57.926 50.147-57.926 90.1zm173.196-187.17h-148.295c-5.194-9.703-8.529-20.537-9.55-32.03h167.396c-1.022 11.493-4.357 22.328-9.551 32.03zm-138.03 15h127.765c-15.427 18.046-38.33 29.518-63.876 29.52-.003 0-.005 0-.008 0-25.547 0-48.453-11.473-63.881-29.52zm162.933-54.53c0-7.885 6.415-14.3 14.3-14.3s14.3 6.415 14.3 14.3c0 41.73-20.212 80.406-54.295 104.401-10.014-6.029-20.825-10.859-32.233-14.3 34.148-15.646 57.928-50.147 57.928-90.101z"/><path d="m41.974 118.516h130.355c4.142 0 7.5-3.358 7.5-7.5s-3.358-7.5-7.5-7.5h-130.355c-4.142 0-7.5 3.358-7.5 7.5s3.358 7.5 7.5 7.5z"/><path d="m41.974 152.09h130.355c4.142 0 7.5-3.358 7.5-7.5s-3.358-7.5-7.5-7.5h-130.355c-4.142 0-7.5 3.358-7.5 7.5s3.358 7.5 7.5 7.5z"/><path d="m41.974 185.664h83.689c4.142 0 7.5-3.358 7.5-7.5s-3.358-7.5-7.5-7.5h-83.689c-4.142 0-7.5 3.358-7.5 7.5s3.358 7.5 7.5 7.5z"/><path d="m172.329 315.697h-130.355c-4.142 0-7.5 3.358-7.5 7.5s3.358 7.5 7.5 7.5h130.355c4.142 0 7.5-3.358 7.5-7.5s-3.358-7.5-7.5-7.5z"/><path d="m172.329 349.272h-130.355c-4.142 0-7.5 3.358-7.5 7.5s3.358 7.5 7.5 7.5h130.355c4.142 0 7.5-3.358 7.5-7.5s-3.358-7.5-7.5-7.5z"/><path d="m125.663 382.846h-83.689c-4.142 0-7.5 3.358-7.5 7.5s3.358 7.5 7.5 7.5h83.689c4.142 0 7.5-3.358 7.5-7.5s-3.358-7.5-7.5-7.5z"/></g></g></svg>