<?xml version="1.0"?>
<svg xmlns="http://www.w3.org/2000/svg" xmlns:xlink="http://www.w3.org/1999/xlink" xmlns:svgjs="http://svgjs.com/svgjs" version="1.1" width="512" height="512" x="0" y="0" viewBox="0 0 512 512" style="enable-background:new 0 0 512 512" xml:space="preserve" class=""><g><path xmlns="http://www.w3.org/2000/svg" d="m307.39 58.71c52.54 52.75 55.24 136.6 8.1 192.55q-3.825 4.545-8.1 8.84t-8.8 8.14a141.4 141.4 0 0 1 -191.76-8.14c-55.39-55.61-55.39-145.78 0-201.39a141.409 141.409 0 0 1 200.56 0z" fill="#6d6d93" data-original="#6d6d93" style="" class=""/><ellipse xmlns="http://www.w3.org/2000/svg" cx="207.11" cy="159.405" fill="#a0eaea" rx="120.559" ry="121.052" data-original="#a0eaea" style="" class=""/><path xmlns="http://www.w3.org/2000/svg" d="m151.86 73.81a119.83 119.83 0 0 1 70.25-34.519 120.042 120.042 0 0 0 -100.25 34.519 121.4 121.4 0 0 0 0 171.19 120.042 120.042 0 0 0 100.25 34.519 119.83 119.83 0 0 1 -70.25-34.519 121.4 121.4 0 0 1 0-171.19z" fill="#91cecc" data-original="#91cecc" style="" class=""/><path xmlns="http://www.w3.org/2000/svg" d="m315.62 251.37 21.48 21.56-16.93 17-21.48-21.57-.1-.12q4.53-3.855 8.8-8.14t8.1-8.84z" fill="#6d7486" data-original="#6d7486" style=""/><path xmlns="http://www.w3.org/2000/svg" d="m350.68 259.29-44.09 44.28 22.66 22.76 44.09-44.28z" fill="#6d6d93" data-original="#6d6d93" style="" class=""/><path xmlns="http://www.w3.org/2000/svg" d="m437.58 346.55a31.4 31.4 0 0 1 0 44.28 31.083 31.083 0 0 1 -44.09 0l-64.24-64.5 44.09-44.28z" fill="#c79a83" data-original="#c79a83" style=""/><path xmlns="http://www.w3.org/2000/svg" d="m264.53 483.92a11.1 11.1 0 0 1 -22.2 0c0-15.54-11.04-24.64-29.57-36.15l-.02-.03c1.84-1.14 3.75-2.3 5.73-3.5 4.98-3.01 10.11-6.11 15.06-9.49l.01.01c16.51 11.23 30.99 25.45 30.99 49.16z" fill="#d53838" data-original="#68826b" style="" class=""/><path xmlns="http://www.w3.org/2000/svg" d="m191.7 406c5.04 5.36 12.18 10.29 21.02 15.77-1.84 1.15-3.75 2.31-5.74 3.51-4.99 3.01-10.13 6.12-15.09 9.5l-.03-.05c-16.49-11.23-30.94-25.44-30.94-49.13 0-23.58 14.32-37.77 30.72-48.98l.17-.25c4.98 3.4 10.15 6.52 15.17 9.55 1.99 1.2 3.9 2.36 5.74 3.51-10.17 6.31-18.08 11.9-23.16 18.22a27.5 27.5 0 0 0 -6.44 17.95c0 .47.01.94.03 1.4.33 7.49 3.32 13.47 8.55 19z" fill="#d53838" data-original="#68826b" style="" class=""/><path xmlns="http://www.w3.org/2000/svg" d="m233.53 336.45-20.81-13c-9.21-5.71-16.57-10.84-21.64-16.45a33.316 33.316 0 0 1 -4.81-6.72 141.423 141.423 0 0 1 -24.86-6.03l-.04.12c2.57 19.51 15.69 31.95 30.44 42l20.91 13.06c10.31 6.4 18.31 12.06 23.38 18.49a27.4 27.4 0 0 1 6.23 17.68c0 .48-.01.95-.04 1.41-.32 7.48-3.32 13.46-8.55 18.99-5.04 5.35-12.18 10.29-21.02 15.77l-20.83 13.01c-16.5 11.23-30.97 25.44-30.97 49.14a11.1 11.1 0 0 0 22.2 0c0-15.56 11.05-24.66 29.62-36.18l20.79-12.99c16.52-11.22 31-25.43 31-49.15s-14.48-37.93-31-49.15z" fill="#24c8e3" data-original="#8db291" style="" class=""/><path xmlns="http://www.w3.org/2000/svg" d="m234.37 307a31.343 31.343 0 0 0 5.94-9.12 139.623 139.623 0 0 0 24.17-8.2c-.94 22.28-14.99 35.91-30.94 46.76l-.01.01c-4.95-3.38-10.08-6.48-15.06-9.49-1.99-1.2-3.9-2.36-5.75-3.51 9.22-5.71 16.58-10.84 21.65-16.45z" fill="#d53838" data-original="#68826b" style="" class=""/><path xmlns="http://www.w3.org/2000/svg" d="m253.43 79.57a11.09 11.09 0 0 1 11.1 11.08c0 23.59-14.32 37.78-30.73 48.98l-.17.25c-4.98-3.4-10.15-6.52-15.16-9.55q-2.985-1.8-5.75-3.51c18.56-11.52 29.61-20.61 29.61-36.17a11.09 11.09 0 0 1 11.1-11.08z" fill="#d53838" data-original="#75967a" style="" class=""/><path xmlns="http://www.w3.org/2000/svg" d="m191.37 209c5.01 5.44 12.16 10.42 21.07 15.96l.16.26c-1.8 1.11-3.68 2.26-5.62 3.43-4.98 3.01-10.12 6.11-15.07 9.48v-.01c-16.51-11.23-30.99-25.44-30.99-49.15s14.48-37.93 30.99-49.16c4.95 3.37 10.09 6.47 15.07 9.48 1.93 1.17 3.8 2.3 5.59 3.42l-.19.3c-10.48 6.52-18.53 12.28-23.5 18.9a27.223 27.223 0 0 0 -5.76 17.06c0 .35.01.69.02 1.03.24 7.49 3.12 13.48 8.23 19z" fill="#d53838" data-original="#75967a" style="" class=""/><path xmlns="http://www.w3.org/2000/svg" d="m233.63 139.88-20.91-13.06c-18.55-11.51-29.6-20.62-29.6-36.17a11.1 11.1 0 0 0 -22.2 0c0 23.72 14.48 37.93 30.99 49.16l20.66 12.9c10.6 6.57 18.77 12.35 23.83 18.98a27.254 27.254 0 0 1 5.93 17.28c0 .35-.01.69-.03 1.03-.23 7.51-3.12 13.5-8.25 19.04-5.08 5.5-12.37 10.54-21.45 16.18l-20.69 12.91c-12.66 8.6-24.12 18.96-28.79 34.01a118.884 118.884 0 0 0 21.41 6.18 28.372 28.372 0 0 1 4.51-8.32c5.04-6.6 13.16-12.36 23.69-18.89l20.8-13c16.52-11.22 31-25.43 31-49.14 0-23.67-14.43-37.88-30.9-49.09z" fill="#24c8e3" data-original="#9ac5a1" style="" class=""/><path xmlns="http://www.w3.org/2000/svg" d="m260.67 267.64.1.2a118.513 118.513 0 0 1 -20.81 8.05 29.475 29.475 0 0 0 -3.71-6.09c-5.05-6.51-13.1-12.22-23.52-18.69q2.76-1.71 5.74-3.51c4.98-3.01 10.11-6.11 15.06-9.49l.01.01c11.35 7.73 21.74 16.86 27.13 29.52z" fill="#d53838" data-original="#75967a" style="" class=""/><g xmlns="http://www.w3.org/2000/svg" fill="#284268"><path d="m135.35 102.043a5.983 5.983 0 0 0 4.511-2.043c1.26-1.435 2.583-2.85 3.933-4.206a6 6 0 0 0 -8.5-8.467c-1.527 1.532-3.024 3.133-4.45 4.758a6 6 0 0 0 4.508 9.958z" fill="#284268" data-original="#284268" style="" class=""/><path d="m128.109 105.064a6 6 0 0 0 -8.224 2.086 102.092 102.092 0 0 0 15.407 124.336 6 6 0 1 0 8.5-8.467 90.1 90.1 0 0 1 -13.592-109.729 6 6 0 0 0 -2.091-8.226z" fill="#284268" data-original="#284268" style="" class=""/><path d="m296.607 69.575a126.435 126.435 0 0 0 -214.678 71.544 5.994 5.994 0 1 0 11.871 1.686 114.361 114.361 0 0 1 194.305-64.762c44.681 44.864 44.681 117.863 0 162.728a115.151 115.151 0 0 1 -24.709 18.9c-5.189-9.121-12.522-16.1-19.636-21.573 14.594-11.312 26.772-26.225 26.772-49.135s-12.179-37.823-26.774-49.134c13.574-10.466 26.774-25.413 26.774-49.179a17.1 17.1 0 0 0 -34.2 0c0 11.519-7.63 18.89-23.6 29.076-16-10.214-23.61-17.554-23.61-29.076a17.1 17.1 0 0 0 -34.2 0c0 22.912 12.18 37.824 26.775 49.136-13.609 10.5-26.775 25.466-26.775 49.177 0 23.695 13.147 38.659 26.746 49.156-9.054 6.989-17.062 15.3-21.925 26.1a115.1 115.1 0 0 1 -65.129-83.309 6 6 0 0 0 -5.891-4.91 6 6 0 0 0 -5.9 7.1 126.337 126.337 0 0 0 213.782 66.138c49.333-49.533 49.333-130.13.002-179.663zm-48.279 21.077a5.1 5.1 0 0 1 10.2 0c0 11.755-3.077 25.855-25.1 41.894-3.157-2.054-6.32-4-9.4-5.867 13.9-9.406 24.3-19.629 24.3-36.027zm-81.413 98.313c0-11.753 3.086-25.846 25.105-41.891 3.154 2.052 6.314 3.994 9.4 5.862-13.865 9.359-24.3 19.51-24.3 36.029s10.429 26.667 24.3 36.031c-3.118 1.888-6.282 3.83-9.422 5.866-12.898-9.287-25.083-21.669-25.083-41.897zm67.066-9.965a20.646 20.646 0 0 1 2.013 6h-46.533a20.709 20.709 0 0 1 2-6zm-31.544-12c2.931-2.266 6.347-4.6 10.283-7.11 3.928 2.508 7.35 4.844 10.278 7.11zm-7.508 37a24.549 24.549 0 0 1 -4.337-7h44.269a24.636 24.636 0 0 1 -4.346 7zm20.931 12q-1.512 1-3.14 2.042-1.63-1.042-3.148-2.042zm-34.886 55.462q-5.106-1.191-10.065-2.838c7.287-15.588 23.467-25.362 39.169-34.842 23.106-13.951 38.25-24.608 38.25-44.817s-15.144-30.863-38.25-44.815c-21.221-12.812-43.163-26.06-43.163-53.5a5.1 5.1 0 0 1 10.2 0c0 20.208 15.145 30.865 38.25 44.815 21.221 12.812 43.163 26.06 43.163 53.5s-21.942 40.687-43.162 53.5c-16.155 9.757-28.461 17.845-34.392 28.997zm21.892-6.462c2.906-2.232 6.21-4.475 9.853-6.8 3.689 2.355 6.983 4.6 9.852 6.8zm40.025 3.762c-4.1-6.333-10.349-11.718-18.877-17.5 3.09-1.872 6.257-3.819 9.42-5.877 9.049 6.55 15.208 12.831 19.217 19.653q-4.791 2.084-9.76 3.724z" fill="#284268" data-original="#284268" style="" class=""/><path d="m354.932 255.058a6 6 0 0 0 -8.5 0l-9.332 9.372-13.543-13.6c45.386-58.179 41.422-142.8-11.909-196.355a146.558 146.558 0 0 0 -104.537-43.475 146.566 146.566 0 0 0 -104.536 43.476c-57.622 57.859-57.622 152 0 209.861a147.28 147.28 0 0 0 53.445 34.4c3.308 16.6 13.7 28.374 25.679 37.672-13.578 10.467-26.784 25.415-26.784 49.189 0 23.722 13.173 38.687 26.776 49.181-14.595 11.312-26.776 26.226-26.776 49.139a17.1 17.1 0 0 0 34.2 0c0-11.524 7.61-18.864 23.61-29.079 15.972 10.183 23.6 17.52 23.6 29.079a17.1 17.1 0 0 0 34.2 0c0-23.713-13.167-38.682-26.776-49.181 14.6-11.313 26.776-26.226 26.776-49.139s-12.179-37.827-26.774-49.139c12.291-9.48 24.3-22.677 26.436-42.765a146.843 146.843 0 0 0 27.974-17.361l13.539 13.595-9.368 9.406a6 6 0 0 0 0 8.468l86.9 87.258a37.089 37.089 0 0 0 52.6 0 37.447 37.447 0 0 0 0-52.744zm-188.017 130.542c0-11.757 3.078-25.859 25.105-41.9 3.161 2.06 6.323 4 9.4 5.866-13.885 9.385-24.3 19.576-24.3 36.032 0 11.477 5.083 19.916 12.881 27.165v.237h.247a95.6 95.6 0 0 0 11.173 8.632c-3.088 1.872-6.255 3.818-9.415 5.875-12.892-9.285-25.091-21.663-25.091-41.907zm66.726-10.6a20.786 20.786 0 0 1 2.418 7h-46.647a20.789 20.789 0 0 1 2.392-7zm-30.368-12c2.745-2.07 5.876-4.2 9.445-6.477 3.564 2.275 6.713 4.409 9.452 6.477zm-8.015 38a25.354 25.354 0 0 1 -4.526-7h43.979a25.248 25.248 0 0 1 -4.507 7zm20.056 12c-.838.552-1.707 1.113-2.6 1.681-.9-.57-1.748-1.127-2.59-1.681zm43.218 70.922a5.1 5.1 0 0 1 -10.2 0c0-16.462-10.416-26.65-24.3-36.031 3.088-1.871 6.253-3.818 9.413-5.874 12.895 9.289 25.087 21.672 25.087 41.905zm0-98.32c0 27.438-21.941 40.688-43.162 53.5-23.105 13.951-38.251 24.608-38.251 44.818a5.1 5.1 0 0 1 -10.2 0c0-27.438 21.941-40.688 43.162-53.5 23.106-13.951 38.251-24.608 38.251-44.818s-15.145-30.867-38.252-44.819c-16.681-10.074-33.84-20.447-40.386-37.75q6.362 1.659 12.888 2.75c6.453 9.886 18.245 17.533 32.792 26.317 21.216 12.813 43.158 26.062 43.158 53.5zm-49.432-71.602h7.249c-1.159.775-2.373 1.563-3.623 2.361-1.248-.793-2.464-1.58-3.626-2.361zm24.348 15.187c-3.165-2.06-6.335-4.009-9.427-5.882 9.727-6.6 16.513-12.7 20.487-20.261q6.339-1.651 12.49-3.863c-3.678 13.486-13.425 22.719-23.555 30.006zm-26.338-33.374a134.646 134.646 0 0 1 -96.033-39.943c-52.971-53.19-52.971-139.736 0-192.926a135.413 135.413 0 0 1 192.066 0c52.971 53.19 52.971 139.736 0 192.926a134.647 134.647 0 0 1 -96.033 39.943zm100.2-27.3c1.467-1.361 2.918-2.745 4.338-4.172s2.778-2.862 4.12-4.322l12.864 12.917-8.459 8.494zm7.747 35.059 35.624-35.772 14.2 14.255-35.631 35.768zm118.275 83.024a25.09 25.09 0 0 1 -35.593 0l-60.018-60.266 35.627-35.774 59.984 60.231a25.424 25.424 0 0 1 -.003 35.805z" fill="#284268" data-original="#284268" style="" class=""/></g></g></svg>
