<svg id="Capa_1" enable-background="new 0 0 512 512" height="512" viewBox="0 0 512 512" width="512" xmlns="http://www.w3.org/2000/svg"><g><path d="m504.5 487.225h-497v-18.061c0-20.534 16.646-37.18 37.18-37.18h422.64c20.534 0 37.18 16.646 37.18 37.18z" fill="#e7a561"/><path d="m467.32 431.984h-22.5c20.534 0 37.181 16.646 37.181 37.18v18.061h22.5v-18.061c-.001-20.534-16.647-37.18-37.181-37.18z" fill="#e4936b"/><path d="m152.18 404.694c-28.258 0-51.166-22.908-51.166-51.166v-297.406h102.333v297.405c-.001 28.259-22.908 51.167-51.167 51.167z" fill="#d3effb"/><path d="m184.369 56.122h-83.355v15.673h68.037c8.46 0 15.318 6.858 15.318 15.318v266.414c0 25.015-17.955 45.823-41.677 50.274 3.076.577 6.245.893 9.489.893 28.258 0 51.166-22.908 51.166-51.166v-281.733-15.673z" fill="#bed8fb"/><path d="m152.18 379.693c-14.428 0-26.166-11.738-26.166-26.166v-160.189c22.387 12.95 29.037-11.985 52.333 0v160.189c0 14.428-11.738 26.166-26.167 26.166z" fill="#dd5790"/><g><path d="m156.959 191.663c.012.005.024.009.036.014 2.272.853 3.75 3.061 3.75 5.488v156.363c0 11.341-7.255 21.016-17.366 24.639 3.296 1.181 6.893 1.724 10.645 1.463 13.8-.959 24.322-12.812 24.322-26.646v-159.646c-8.988-4.624-15.495-3.747-21.387-1.675z" fill="#da387d"/></g><path d="m215.728 56.122h-127.096c-3.209 0-5.81-2.601-5.81-5.81v-19.726c0-3.209 2.601-5.81 5.81-5.81h127.096c3.209 0 5.81 2.601 5.81 5.81v19.726c.001 3.209-2.601 5.81-5.81 5.81z" fill="#9dc6fb"/><path d="m215.728 24.775h-21.044c3.209 0 5.81 2.601 5.81 5.81v19.726c0 3.209-2.601 5.81-5.81 5.81h21.044c3.209 0 5.81-2.601 5.81-5.81v-19.725c.001-3.209-2.601-5.811-5.81-5.811z" fill="#80b4fb"/><path d="m373.408 404.694c-28.258 0-51.166-22.908-51.166-51.166v-297.406h102.333v297.405c-.001 28.259-22.909 51.167-51.167 51.167z" fill="#d3effb"/><path d="m405.596 56.122h-83.355v15.673h68.037c8.46 0 15.318 6.858 15.318 15.318v266.414c0 25.015-17.955 45.823-41.677 50.274 3.076.577 6.245.893 9.489.893 28.258 0 51.166-22.908 51.166-51.166v-281.733-15.673z" fill="#bed8fb"/><path d="m373.407 379.693c-14.428 0-26.166-11.738-26.166-26.166v-160.189c22.387 12.95 29.037-11.985 52.333 0v160.189c0 14.428-11.738 26.166-26.167 26.166z" fill="#26457d"/><g><path d="m378.186 191.663c.012.005.024.009.036.014 2.272.853 3.75 3.061 3.75 5.488v156.363c0 11.341-7.255 21.016-17.366 24.639 3.296 1.181 6.893 1.724 10.645 1.463 13.8-.959 24.322-12.812 24.322-26.646v-159.646c-8.987-4.624-15.495-3.747-21.387-1.675z" fill="#21386b"/></g><path d="m436.956 56.122h-127.096c-3.209 0-5.81-2.601-5.81-5.81v-19.726c0-3.209 2.601-5.81 5.81-5.81h127.096c3.209 0 5.81 2.601 5.81 5.81v19.726c0 3.209-2.601 5.81-5.81 5.81z" fill="#9dc6fb"/><path d="m436.956 24.775h-21.044c3.209 0 5.81 2.601 5.81 5.81v19.726c0 3.209-2.601 5.81-5.81 5.81h21.044c3.209 0 5.81-2.601 5.81-5.81v-19.725c0-3.209-2.601-5.811-5.81-5.811z" fill="#80b4fb"/><path d="m493.759 155.618h-475.517c-5.932 0-10.742-4.809-10.742-10.742v-24.178c0-5.932 4.809-10.742 10.742-10.742h475.517c5.932 0 10.742 4.809 10.742 10.742v24.178c-.001 5.932-4.81 10.742-10.742 10.742z" fill="#e7a561"/><path d="m493.759 109.957h-22.5c5.932 0 10.742 4.809 10.742 10.741v24.178c0 5.932-4.809 10.741-10.742 10.741h22.5c5.932 0 10.742-4.809 10.742-10.741v-24.178c-.001-5.932-4.81-10.741-10.742-10.741z" fill="#e4936b"/><g><path d="m152.18 387.193c18.564 0 33.667-15.103 33.667-33.666v-160.189c0-2.81-1.57-5.384-4.068-6.669-14.695-7.561-25.109-3.155-32.715.062-7.02 2.969-11.259 4.765-19.295.115-2.32-1.343-5.182-1.344-7.502-.005-2.322 1.34-3.753 3.816-3.753 6.497v160.188c0 18.564 15.102 33.667 33.666 33.667zm-18.666-183.026c8.89 1.662 15.876-1.288 21.392-3.621 5.757-2.434 9.894-4.188 15.941-2.257v155.237c0 10.292-8.374 18.666-18.667 18.666-10.292 0-18.666-8.374-18.666-18.666z"/><path d="m403.005 186.669c-14.691-7.561-25.108-3.155-32.714.062-7.02 2.969-11.26 4.765-19.294.115-2.321-1.343-5.182-1.344-7.503-.005-2.322 1.34-3.753 3.816-3.753 6.497v160.188c0 18.563 15.103 33.666 33.666 33.666 18.564 0 33.667-15.103 33.667-33.666v-160.188c0-2.809-1.57-5.383-4.069-6.669zm-10.931 166.858c0 10.292-8.374 18.666-18.667 18.666-10.292 0-18.666-8.374-18.666-18.666v-149.36c8.889 1.662 15.876-1.288 21.392-3.621 5.757-2.434 9.893-4.188 15.941-2.257z"/><path d="m493.759 163.118c10.059 0 18.241-8.184 18.241-18.242v-24.178c0-10.059-8.183-18.241-18.241-18.241h-61.685v-38.835h4.882c7.34 0 13.311-5.971 13.311-13.31v-19.727c0-7.34-5.971-13.311-13.311-13.311h-127.097c-7.34 0-13.311 5.971-13.311 13.311v19.727c0 7.339 5.971 13.31 13.311 13.31h4.882v38.835h-103.894v-38.835h4.882c7.34 0 13.311-5.971 13.311-13.31v-19.727c0-7.339-5.971-13.31-13.311-13.31h-74.722c-4.143 0-7.5 3.357-7.5 7.5s3.357 7.5 7.5 7.5h73.032v16.346h-123.718v-16.345h20.699c4.143 0 7.5-3.357 7.5-7.5s-3.357-7.5-7.5-7.5h-22.388c-7.34 0-13.311 5.971-13.311 13.31v19.727c0 7.339 5.971 13.31 13.311 13.31h4.882v38.835h-75.272c-10.058-.001-18.242 8.181-18.242 18.24v24.178c0 10.059 8.184 18.242 18.242 18.242h18.938v262.008c-21.076 3.579-37.18 21.958-37.18 44.039v18.061c0 4.143 3.357 7.5 7.5 7.5h133.299c4.143 0 7.5-3.357 7.5-7.5s-3.357-7.5-7.5-7.5h-125.799v-10.561c0-16.366 13.314-29.681 29.681-29.681h422.639c16.366 0 29.681 13.314 29.681 29.681v10.561h-326.215c-4.143 0-7.5 3.357-7.5 7.5s3.357 7.5 7.5 7.5h333.714c4.143 0 7.5-3.357 7.5-7.5v-18.061c0-21.319-15.014-39.188-35.021-43.617v-262.43zm-182.21-130.843h123.718v16.347h-123.718zm18.192 31.347h87.333v38.835h-87.333zm-221.227 0h87.333v38.835h-87.333zm-93.514 81.253v-24.178c0-1.787 1.454-3.241 3.242-3.241h475.517c1.787 0 3.241 1.454 3.241 3.241v24.178c0 1.788-1.454 3.242-3.241 3.242h-475.517c-1.788.001-3.242-1.453-3.242-3.242zm93.514 18.243h87.333v190.41c0 24.077-19.589 43.666-43.666 43.666-24.078 0-43.667-19.589-43.667-43.666zm353.465 261.366h-409.798v-261.366h41.333v190.41c0 32.349 26.318 58.666 58.667 58.666s58.666-26.317 58.666-58.666v-190.41h103.895v190.409c0 32.349 26.318 58.667 58.667 58.667s58.666-26.318 58.666-58.667v-94.48c0-4.143-3.357-7.5-7.5-7.5s-7.5 3.357-7.5 7.5v94.48c0 24.078-19.589 43.667-43.667 43.667-24.077 0-43.666-19.589-43.666-43.667v-190.409h87.333v65.941c0 4.143 3.357 7.5 7.5 7.5s7.5-3.357 7.5-7.5v-65.941h29.905v261.366z"/><path d="m291.08 467.105c4.143 0 7.5-3.357 7.5-7.5s-3.357-7.5-7.5-7.5h-70.159c-4.143 0-7.5 3.357-7.5 7.5s3.357 7.5 7.5 7.5z"/></g></g></svg>