<svg height="512" viewBox="0 0 64 64" width="512" xmlns="http://www.w3.org/2000/svg"><g id="Filled_outline" data-name="Filled outline"><path d="m15 5h34v54h-34z" fill="#aabece"/><path d="m19 5h26v18h-26z" fill="#f4f4e6"/><path d="m37 12h-3v-3h-4v3h-3v4h3v3h4v-3h3z" fill="#dd3e46"/><path d="m19 35h5v6h-5z" fill="#5a6470"/><path d="m24 35h4v6h-4z" fill="#394d5c"/><path d="m28 35h4v6h-4z" fill="#5a6470"/><path d="m32 35h4v6h-4z" fill="#394d5c"/><path d="m36 35h4v6h-4z" fill="#5a6470"/><path d="m40 35h4v6h-4z" fill="#394d5c"/><path d="m24 41h16v14h-16z" fill="#cdeef6"/><path d="m24 55h16v4h-16z" fill="#394d5c"/><g fill="#7d8d9c"><path d="m19 41h5v18h-5z"/><path d="m40 41h4v18h-4z"/><path d="m19 27h25v4h-25z"/></g><path d="m3 21h12v38h-12z" fill="#cfdfe8"/><path d="m3 17h12v4h-12z" fill="#7d8d9c"/><path d="m3 55h12v4h-12z" fill="#7d8d9c"/><path d="m49 21h12v38h-12z" fill="#cfdfe8" transform="matrix(-1 0 0 -1 110 80)"/><path d="m49 17h12v4h-12z" fill="#7d8d9c" transform="matrix(-1 0 0 -1 110 38)"/><path d="m49 55h12v4h-12z" fill="#7d8d9c" transform="matrix(-1 0 0 -1 110 114)"/><g fill="#fff69a"><path d="m53 25h4v4h-4z"/><path d="m53 33h4v4h-4z"/><path d="m53 41h4v4h-4z"/><path d="m53 49h4v6h-4z"/><path d="m7 25h4v4h-4z"/><path d="m7 33h4v4h-4z"/><path d="m7 41h4v4h-4z"/><path d="m7 49h4v6h-4z"/></g><path d="m37 11h-2v-2a1 1 0 0 0 -1-1h-4a1 1 0 0 0 -1 1v2h-2a1 1 0 0 0 -1 1v4a1 1 0 0 0 1 1h2v2a1 1 0 0 0 1 1h4a1 1 0 0 0 1-1v-2h2a1 1 0 0 0 1-1v-4a1 1 0 0 0 -1-1zm-1 4h-2a1 1 0 0 0 -1 1v2h-2v-2a1 1 0 0 0 -1-1h-2v-2h2a1 1 0 0 0 1-1v-2h2v2a1 1 0 0 0 1 1h2z"/><path d="m19 32h25a1 1 0 0 0 1-1v-4a1 1 0 0 0 -1-1h-25a1 1 0 0 0 -1 1v4a1 1 0 0 0 1 1zm1-4h23v2h-23z"/><path d="m3 60h58a1 1 0 0 0 1-1v-42a1 1 0 0 0 -1-1h-11v-11a1 1 0 0 0 -1-1h-34a1 1 0 0 0 -1 1v11h-11a1 1 0 0 0 -1 1v42a1 1 0 0 0 1 1zm47-42h10v2h-10zm0 4h10v32h-2v-5a1 1 0 0 0 -1-1h-4a1 1 0 0 0 -1 1v5h-2zm6 28v4h-2v-4zm-6 6h10v2h-10zm-27-1v3h-3v-16h3zm0-15h-3v-4h3zm16 18h-14v-2h14zm-8-16v5h-2v2h2v5h-6v-12zm-6-2v-4h2v4zm4 0v-4h2v4zm10 14h-6v-5h2v-2h-2v-5h6zm-6-14v-4h2v4zm6 0h-2v-4h2zm4 18h-2v-16h2zm0-18h-2v-4h2zm-23-34h24v16h-24zm-4 0h2v17a1 1 0 0 0 1 1h26a1 1 0 0 0 1-1v-17h2v52h-3v-23a1 1 0 0 0 -1-1h-25a1 1 0 0 0 -1 1v23h-2zm-12 12h10v2h-10zm0 4h10v32h-2v-5a1 1 0 0 0 -1-1h-4a1 1 0 0 0 -1 1v5h-2zm6 28v4h-2v-4zm-6 6h10v2h-10z"/><path d="m53 30h4a1 1 0 0 0 1-1v-4a1 1 0 0 0 -1-1h-4a1 1 0 0 0 -1 1v4a1 1 0 0 0 1 1zm1-4h2v2h-2z"/><path d="m53 38h4a1 1 0 0 0 1-1v-4a1 1 0 0 0 -1-1h-4a1 1 0 0 0 -1 1v4a1 1 0 0 0 1 1zm1-4h2v2h-2z"/><path d="m53 46h4a1 1 0 0 0 1-1v-4a1 1 0 0 0 -1-1h-4a1 1 0 0 0 -1 1v4a1 1 0 0 0 1 1zm1-4h2v2h-2z"/><path d="m7 30h4a1 1 0 0 0 1-1v-4a1 1 0 0 0 -1-1h-4a1 1 0 0 0 -1 1v4a1 1 0 0 0 1 1zm1-4h2v2h-2z"/><path d="m7 38h4a1 1 0 0 0 1-1v-4a1 1 0 0 0 -1-1h-4a1 1 0 0 0 -1 1v4a1 1 0 0 0 1 1zm1-4h2v2h-2z"/><path d="m7 46h4a1 1 0 0 0 1-1v-4a1 1 0 0 0 -1-1h-4a1 1 0 0 0 -1 1v4a1 1 0 0 0 1 1zm1-4h2v2h-2z"/></g></svg>