<svg id="Layer_1" data-name="Layer 1" xmlns="http://www.w3.org/2000/svg" viewBox="0 0 425.22 434.5"><defs><style>.cls-1{fill:#c3c5c7;}.cls-2{fill:#e3584b;}.cls-3{fill:#d1d4d6;}.cls-4{fill:#a3603e;}.cls-5{fill:#4398d1;}.cls-6{fill:#3e8cc7;}.cls-7{fill:#c9473a;}.cls-8{fill:#88b337;}.cls-9{fill:#b1b3b5;}.cls-10{fill:#eef5f6;}.cls-11{fill:#deecf1;}.cls-12{fill:#fd8087;}.cls-13{fill:#fd4755;}.cls-14{fill:#63dcd8;}.cls-15{fill:#6b95d6;}.cls-16{fill:#2571b6;}</style></defs><path class="cls-1" d="M63,158.3H362.55V403.4H63Z" transform="translate(-35.75 -35.75)"/><path class="cls-2" d="M42.56,83.41H383V158.3H42.56Z" transform="translate(-35.75 -35.75)"/><path class="cls-3" d="M63,42.56H97V83.41H63Z" transform="translate(-35.75 -35.75)"/><path class="cls-3" d="M212.76,437.44H63V158.3l74.89-74.89,74.89,74.89Z" transform="translate(-35.75 -35.75)"/><path class="cls-2" d="M42.56,253.62H383v54.46H42.56Z" transform="translate(-35.75 -35.75)"/><path class="cls-3" d="M42.56,403.4h170.2v34H42.56Z" transform="translate(-35.75 -35.75)"/><path class="cls-4" d="M90.22,185.53h27.23v40.85H90.22Z" transform="translate(-35.75 -35.75)"/><path class="cls-5" d="M117.45,185.53H158.3v40.85H117.45Z" transform="translate(-35.75 -35.75)"/><path class="cls-4" d="M158.3,185.53h27.23v40.85H158.3Z" transform="translate(-35.75 -35.75)"/><path class="cls-6" d="M117.45,185.53H158.3v13.62H117.45Z" transform="translate(-35.75 -35.75)"/><path class="cls-3" d="M212.76,403.4h177v34h-177Z" transform="translate(-35.75 -35.75)"/><path class="cls-4" d="M240,335.32h27.23V403.4H240Z" transform="translate(-35.75 -35.75)"/><path class="cls-5" d="M267.23,335.32h40.85V403.4H267.23Z" transform="translate(-35.75 -35.75)"/><path class="cls-4" d="M308.08,335.32h27.23V403.4H308.08Z" transform="translate(-35.75 -35.75)"/><path class="cls-6" d="M267.23,335.32h40.85v13.61H267.23Z" transform="translate(-35.75 -35.75)"/><path class="cls-7" d="M233.19,110.64h27.23v13.62H233.19Z" transform="translate(-35.75 -35.75)"/><path class="cls-7" d="M260.42,124.26h27.23v13.62H260.42Z" transform="translate(-35.75 -35.75)"/><path class="cls-7" d="M314.89,110.64h27.23v13.62H314.89Z" transform="translate(-35.75 -35.75)"/><path class="cls-5" d="M151.49,144.68a13.62,13.62,0,1,1-13.62-13.61A13.62,13.62,0,0,1,151.49,144.68Z" transform="translate(-35.75 -35.75)"/><path class="cls-7" d="M97,274h27.24v13.62H97Z" transform="translate(-35.75 -35.75)"/><path class="cls-7" d="M328.5,274h27.24v13.62H328.5Z" transform="translate(-35.75 -35.75)"/><path class="cls-7" d="M274,274h27.23v13.62H274Z" transform="translate(-35.75 -35.75)"/><path class="cls-4" d="M240,185.53h27.23v40.85H240Z" transform="translate(-35.75 -35.75)"/><path class="cls-5" d="M267.23,185.53h40.85v40.85H267.23Z" transform="translate(-35.75 -35.75)"/><path class="cls-4" d="M308.08,185.53h27.23v40.85H308.08Z" transform="translate(-35.75 -35.75)"/><path class="cls-6" d="M267.23,185.53h40.85v13.62H267.23Z" transform="translate(-35.75 -35.75)"/><path class="cls-4" d="M90.22,335.32h27.23v40.85H90.22Z" transform="translate(-35.75 -35.75)"/><path class="cls-5" d="M117.45,335.32H158.3v40.85H117.45Z" transform="translate(-35.75 -35.75)"/><path class="cls-4" d="M158.3,335.32h27.23v40.85H158.3Z" transform="translate(-35.75 -35.75)"/><path class="cls-6" d="M117.45,335.32H158.3v13.61H117.45Z" transform="translate(-35.75 -35.75)"/><path class="cls-8" d="M164.74,400.17a20.33,20.33,0,0,0-33.82-18.56,20.32,20.32,0,0,0-40.56,0,20.25,20.25,0,0,0-33.82,18.56,27.1,27.1,0,0,0-14,23.65v13.62H178.72V423.82A27.1,27.1,0,0,0,164.74,400.17Z" transform="translate(-35.75 -35.75)"/><path class="cls-9" d="M212.76,158.3H362.55v13.62H212.76Z" transform="translate(-35.75 -35.75)"/><path class="cls-9" d="M212.76,308.08H362.55V321.7H212.76Z" transform="translate(-35.75 -35.75)"/><path class="cls-1" d="M63,308.08H212.76V321.7H63Z" transform="translate(-35.75 -35.75)"/><path class="cls-8" d="M415.89,282.64a34,34,0,1,0-67-8.6,33.05,33.05,0,0,0,1.45,9.78,38.72,38.72,0,0,1-8.7,36.41,54.46,54.46,0,1,0,81.89-.79A39.78,39.78,0,0,1,415.89,282.64Z" transform="translate(-35.75 -35.75)"/><path class="cls-4" d="M376.16,301.27h13.62V437.44H376.16Z" transform="translate(-35.75 -35.75)"/><path class="cls-1" d="M83.41,42.56H97V83.41H83.41Z" transform="translate(-35.75 -35.75)"/><path d="M90.22,233.19h95.31a6.81,6.81,0,0,0,6.81-6.81V185.53a6.8,6.8,0,0,0-6.81-6.8H90.22a6.8,6.8,0,0,0-6.81,6.8v40.85A6.81,6.81,0,0,0,90.22,233.19Zm74.89-40.85h13.61v27.24H165.11Zm-40.85,0h27.23v27.24H124.26Zm-27.24,0h13.62v27.24H97Z" transform="translate(-35.75 -35.75)"/><path d="M240,233.19h95.31a6.81,6.81,0,0,0,6.81-6.81V185.53a6.8,6.8,0,0,0-6.81-6.8H240a6.8,6.8,0,0,0-6.81,6.8v40.85A6.81,6.81,0,0,0,240,233.19Zm74.89-40.85H328.5v27.24H314.89Zm-40.85,0h27.23v27.24H274Zm-27.23,0h13.61v27.24H246.81Z" transform="translate(-35.75 -35.75)"/><path d="M233.19,110.64h27.23v13.62H233.19Z" transform="translate(-35.75 -35.75)"/><path d="M260.42,124.26h27.23v13.62H260.42Z" transform="translate(-35.75 -35.75)"/><path d="M314.89,110.64h27.23v13.62H314.89Z" transform="translate(-35.75 -35.75)"/><path d="M97,274h27.24v13.62H97Z" transform="translate(-35.75 -35.75)"/><path d="M137.87,165.11a20.43,20.43,0,1,0-20.42-20.43A20.43,20.43,0,0,0,137.87,165.11Zm0-27.23a6.81,6.81,0,1,1-6.8,6.8A6.8,6.8,0,0,1,137.87,137.88Z" transform="translate(-35.75 -35.75)"/><path d="M274,274h27.23v13.62H274Z" transform="translate(-35.75 -35.75)"/><path d="M422.46,284.39a40.81,40.81,0,0,0-30.73-50.28,41.54,41.54,0,0,0-22.4,1.43V165.11H383a6.81,6.81,0,0,0,6.81-6.81V83.41A6.81,6.81,0,0,0,383,76.6H103.83v-34A6.81,6.81,0,0,0,97,35.75H63a6.81,6.81,0,0,0-6.81,6.81v34H42.56a6.81,6.81,0,0,0-6.81,6.81V158.3a6.81,6.81,0,0,0,6.81,6.81H56.17v81.7H42.56a6.81,6.81,0,0,0-6.81,6.81v54.46a6.81,6.81,0,0,0,6.81,6.81H56.17v63.88a27,27,0,0,0-6.8,17.82H42.56a6.81,6.81,0,0,0-6.81,6.81v34a6.81,6.81,0,0,0,6.81,6.81H389.78V416.57a61.23,61.23,0,0,0,38.87-101.68A32.8,32.8,0,0,1,422.46,284.39ZM376.16,90.22v61.27H215.58L154.31,90.22Zm-20.42,74.89v78.57a37.1,37.1,0,0,0-3.14,3.13h-133v-81.7Zm-149.78-4v85.69H69.79V161.12L137.87,93ZM69.79,49.37H90.22V76.6H69.79ZM49.37,151.49V90.22h72.07L60.16,151.49Zm0,149.78V260.42H344.45A41,41,0,0,0,342.12,274H328.5v13.62h15.79a29.25,29.25,0,0,1-.13,13.61ZM171.91,430.63H49.37v-6.81a20.43,20.43,0,0,1,10.5-17.7A6.81,6.81,0,0,0,63.28,399a13,13,0,0,1-.3-2.4,13.56,13.56,0,0,1,22.78-10,6.81,6.81,0,0,0,11.39-4.55,13.52,13.52,0,0,1,27,0,6.81,6.81,0,0,0,11.39,4.55A13.46,13.46,0,0,1,158,399a6.81,6.81,0,0,0,3.4,7.14,20.42,20.42,0,0,1,10.47,17.72ZM97,359.5V342.12h13.62v13.62A26.77,26.77,0,0,0,97,359.5Zm27.24,0V342.12h27.23v28.2a25.81,25.81,0,0,0-16.42.82A27.48,27.48,0,0,0,124.26,359.5Zm40.85,9.86V342.12h13.61v27.24Zm6.8,27.23A26.87,26.87,0,0,0,168.13,383h17.4a6.8,6.8,0,0,0,6.81-6.8V335.32a6.81,6.81,0,0,0-6.81-6.81H90.22a6.81,6.81,0,0,0-6.81,6.81v35a27.06,27.06,0,0,0-6.81-1,26.59,26.59,0,0,0-6.81,1V314.89H206v81.7Zm61.28,34H185.53v-6.81a33.62,33.62,0,0,0-2.95-13.61h50.61Zm95.31,0H246.81V410.21H328.5Zm-81.69-34V342.12h13.61v54.47Zm27.23,0V342.12h27.23v54.47Zm54.46,0H314.89V342.12h8.42a62.61,62.61,0,0,0-.48,25.54,59.51,59.51,0,0,0,5.67,16.26Zm-.36-68.08H240a6.81,6.81,0,0,0-6.81,6.81v61.27H219.57v-81.7H337.2c-.23.29-.44.61-.67.9A60.51,60.51,0,0,0,328.14,328.51Zm48,102.12h-34V401.35a60.2,60.2,0,0,0,28.6,14.49c1.8.35,3.61.6,5.44.79Zm37.11-38.13a47.54,47.54,0,0,1-23.49,10.37V301.27H376.16V402.85c-.94-.13-1.88-.21-2.82-.39a47.3,47.3,0,0,1-37.14-37.34,48,48,0,0,1,10.63-40.45,45.46,45.46,0,0,0,10.06-42.83,26.45,26.45,0,0,1-1.15-7.8,27.11,27.11,0,0,1,10.08-21.15,26.83,26.83,0,0,1,17.1-6.08,29.19,29.19,0,0,1,6,.63,27.07,27.07,0,0,1,20.73,21.15,27.44,27.44,0,0,1-.36,12.26,46.35,46.35,0,0,0,9.18,43.07,47.67,47.67,0,0,1-5.23,68.58Z" transform="translate(-35.75 -35.75)"/><path class="cls-10" d="M412.53,387.91l-9.14-2.49V375.2a2.81,2.81,0,0,0-3.05-2.49H365.6a2.81,2.81,0,0,0-3.05,2.49v15.7l-12.19-5.48v-14c0-4.82,4.78-8.73,10.67-8.73h40.84c5.89,0,10.66,3.91,10.66,8.73Z" transform="translate(-35.75 -35.75)"/><path class="cls-11" d="M404.91,362.73H397.3c5.88,0,10.66,3.92,10.66,8.73v16.45l7.62-2.49v-14C415.58,366.65,410.79,362.73,404.91,362.73Z" transform="translate(-35.75 -35.75)"/><path class="cls-12" d="M448.63,465l-16.29,2.5H333.6L314.87,465c-2.52,0-4.57-1.67-4.57-3.74l-3-8.58V389.16c0-2.07,2-3.74,4.57-3.74h136.8c2.52,0,4.57,1.67,4.57,3.74v72.1c0,2.07-2.05,3.74-4.57,3.74Z" transform="translate(-35.75 -35.75)"/><path class="cls-13" d="M454.11,385.42H445c2.53,0,4.57,1.67,4.57,3.74v74.6c0,2.06-2,3.74-4.57,3.74h9.14c2.53,0,4.57-1.68,4.57-3.74v-74.6C458.68,387.09,456.64,385.42,454.11,385.42Z" transform="translate(-35.75 -35.75)"/><path class="cls-10" d="M451.07,467.5H432.34c0-7.94,7.62-14.42,17.2-14.8.3,0,.59.48.89.48h5.21v10.58C455.64,465.82,453.59,467.5,451.07,467.5Z" transform="translate(-35.75 -35.75)"/><path class="cls-11" d="M458.68,463.76V452.68h-8.25l-.89,0v11.06c0,2.06-2,3.74-4.57,3.74h9.14C456.64,467.5,458.68,465.82,458.68,463.76Z" transform="translate(-35.75 -35.75)"/><path class="cls-10" d="M311.83,467.5H333.6c0-8.18-8.1-14.82-18.09-14.82h-8.25v11.08C307.26,465.82,309.3,467.5,311.83,467.5Z" transform="translate(-35.75 -35.75)"/><path class="cls-14" d="M412,417.32H397.18a2.82,2.82,0,0,1-3.05-2.49v-12.1a2.81,2.81,0,0,0-3-2.5H374.85a2.81,2.81,0,0,0-3,2.5v12.1a2.82,2.82,0,0,1-3.05,2.49H354a2.81,2.81,0,0,0-3,2.5V433.1a2.81,2.81,0,0,0,3,2.5h14.78a2.81,2.81,0,0,1,3.05,2.49v12.1a2.81,2.81,0,0,0,3.05,2.49h16.23a2.8,2.8,0,0,0,3-2.49v-12.1a2.81,2.81,0,0,1,3.05-2.49H412a2.82,2.82,0,0,0,3.05-2.5V419.82A2.83,2.83,0,0,0,412,417.32Z" transform="translate(-35.75 -35.75)"/><path class="cls-15" d="M436.1,395.31h-4a2.81,2.81,0,0,1-3.05-2.49v-9.11a2.82,2.82,0,0,1,3.05-2.5h4a2.82,2.82,0,0,1,3,2.5v9.11A2.81,2.81,0,0,1,436.1,395.31Z" transform="translate(-35.75 -35.75)"/><path class="cls-16" d="M439.15,381.21h-4.88a2.81,2.81,0,0,1,3.05,2.5v9.11a2.81,2.81,0,0,1-3.05,2.49h4.88a2.81,2.81,0,0,0,3.05-2.49v-9.11A2.82,2.82,0,0,0,439.15,381.21Z" transform="translate(-35.75 -35.75)"/><path class="cls-15" d="M330.83,395.31h-4a2.81,2.81,0,0,1-3.05-2.49v-9.11a2.82,2.82,0,0,1,3.05-2.5h4a2.81,2.81,0,0,1,3,2.5v9.11A2.8,2.8,0,0,1,330.83,395.31Z" transform="translate(-35.75 -35.75)"/><path class="cls-16" d="M333.87,381.21H329a2.81,2.81,0,0,1,3,2.5v9.11a2.8,2.8,0,0,1-3,2.49h4.87a2.81,2.81,0,0,0,3.05-2.49v-9.11A2.82,2.82,0,0,0,333.87,381.21Z" transform="translate(-35.75 -35.75)"/><path d="M391.09,399.24H374.85c-2.94,0-5.33,2-5.33,4.37V415.7a.7.7,0,0,1-.76.63H354c-2.94,0-5.33,2-5.33,4.36V434c0,2.41,2.39,4.37,5.33,4.37h14.78a.7.7,0,0,1,.76.62v12.1c0,2.41,2.39,4.36,5.33,4.36h16.24c2.94,0,5.33-1.95,5.33-4.36V439a.7.7,0,0,1,.76-.62H412c2.94,0,5.33-2,5.33-4.37v-2.57a2.33,2.33,0,0,0-4.57,0V434a.7.7,0,0,1-.76.62H397.18c-2.94,0-5.33,2-5.33,4.37v12.1a.7.7,0,0,1-.76.62H374.85a.7.7,0,0,1-.76-.62V439c0-2.41-2.39-4.37-5.33-4.37H354a.7.7,0,0,1-.76-.62V420.69a.7.7,0,0,1,.76-.62h14.78c2.94,0,5.33-2,5.33-4.37V403.61a.7.7,0,0,1,.76-.63h16.24a.7.7,0,0,1,.76.63V415.7c0,2.41,2.39,4.37,5.33,4.37H412a.7.7,0,0,1,.76.62v2.57a2.33,2.33,0,0,0,4.57,0v-2.57c0-2.4-2.39-4.36-5.33-4.36H397.18a.7.7,0,0,1-.76-.63V403.61C396.42,401.2,394,399.24,391.09,399.24Z" transform="translate(-35.75 -35.75)"/><path d="M454.11,384.43h-9.64c-.1-2.34-2.45-4.21-5.32-4.21h-7.08c-2.88,0-5.22,1.87-5.32,4.21h-8.89V372.34c0-5.85-5.81-10.6-12.95-10.6H378.69a1.91,1.91,0,1,0,0,3.74h26.22c4.62,0,8.38,3.08,8.38,6.86v12.09h-7.61v-8.35c0-2.41-2.4-4.36-5.34-4.36H365.6c-2.94,0-5.34,1.95-5.34,4.36v8.35h-7.61V372.34c0-3.78,3.76-6.86,8.38-6.86h7.7a1.91,1.91,0,1,0,0-3.74H361c-7.14,0-12.95,4.75-12.95,10.6v12.09h-8.89c-.1-2.34-2.44-4.21-5.32-4.21h-7.08c-2.87,0-5.22,1.87-5.32,4.21h-9.64c-3.78,0-6.86,2.51-6.86,5.61v46.74a2.33,2.33,0,0,0,4.57,0V390a2.12,2.12,0,0,1,2.29-1.87h9.63v5.53c0,2.4,2.39,4.36,5.33,4.36h7.08c2.94,0,5.33-2,5.33-4.36v-5.53h87.54v5.53c0,2.4,2.39,4.36,5.33,4.36h7.08c2.94,0,5.33-2,5.33-4.36v-5.53h9.63A2.12,2.12,0,0,1,456.4,390v61.65h-6c-10.46,0-19.11,6.49-20.25,14.82H335.76c-1.14-8.33-9.79-14.82-20.25-14.82h-6v-6.76a2.33,2.33,0,0,0-4.57,0v19.71c0,3.09,3.08,5.61,6.86,5.61H454.11c3.78,0,6.86-2.52,6.86-5.61V390c0-3.1-3.08-5.61-6.86-5.61Zm-89.28-8.35a.71.71,0,0,1,.77-.62h34.74a.71.71,0,0,1,.77.62v8.35H364.83Zm-30.2,17.62a.7.7,0,0,1-.76.62h-7.08a.7.7,0,0,1-.76-.62v-9.11a.7.7,0,0,1,.76-.63h7.08a.7.7,0,0,1,.76.63Zm105.28,0a.7.7,0,0,1-.76.62h-7.08a.7.7,0,0,1-.76-.62v-9.11a.7.7,0,0,1,.76-.63h7.08a.7.7,0,0,1,.76.63ZM309.54,464.64v-9.21h6c7.94,0,14.53,4.82,15.64,11.08H311.83A2.12,2.12,0,0,1,309.54,464.64Zm144.57,1.87H434.79c1.11-6.26,7.7-11.08,15.64-11.08h6v9.21a2.12,2.12,0,0,1-2.29,1.87Z" transform="translate(-35.75 -35.75)"/></svg>